# xmcd
# 
# Track frame offsets:
#     150
#     14025
#     29847
#     41477
#     56853
#     73690
#     88348
#     105337
#     119271
#     131096
#     149646
#     163322
#     176034
#     186542
#     199406
# 
# Disc length: 2860
# 
# Revision: 0
# Processed by: cddbd v1.5.2PL0 Copyright (c) Steve Scherf et al.
# Submitted via: fre:ac v1.0.17
# 
DISCID=f70b2a0f
DTITLE=Sem Tam - Návrat
DYEAR=2013
DGENRE=Country
TTITLE0=Podzimní déšť
TTITLE1=Návrat
TTITLE2=Chci ti říct
TTITLE3=Příběh
TTITLE4=Jednou dolouho spát
TTITLE5=Který z těch psů
TTITLE6=Proměny
TTITLE7=Jen ty víš
TTITLE8=Starodávná
TTITLE9=Někdo jiný než já
TTITLE10=O'Connell Street
TTITLE11=Roky jdou
TTITLE12=Once In a While
TTITLE13=Píseň pro dva
TTITLE14=Gobi
EXTD=
EXTT0=
EXTT1=
EXTT2=
EXTT3=
EXTT4=
EXTT5=
EXTT6=
EXTT7=
EXTT8=
EXTT9=
EXTT10=
EXTT11=
EXTT12=
EXTT13=
EXTT14=
PLAYORDER=
